<svg width="30" height="30" viewBox="0 0 30 30" fill="none" xmlns="http://www.w3.org/2000/svg">
<path d="M10.3125 23.4375C10.3125 23.9348 10.115 24.4117 9.76335 24.7633C9.41172 25.1149 8.9348 25.3125 8.43752 25.3125C7.94024 25.3125 7.46333 25.1149 7.1117 24.7633C6.76007 24.4117 6.56252 23.9348 6.56252 23.4375M10.3125 23.4375C10.3125 22.9402 10.115 22.4633 9.76335 22.1117C9.41172 21.76 8.9348 21.5625 8.43752 21.5625C7.94024 21.5625 7.46333 21.76 7.1117 22.1117C6.76007 22.4633 6.56252 22.9402 6.56252 23.4375M10.3125 23.4375H17.8125M6.56252 23.4375H4.21877C3.84581 23.4375 3.48813 23.2893 3.2244 23.0256C2.96068 22.7619 2.81252 22.4042 2.81252 22.0312V17.8125M17.8125 23.4375H20.625M17.8125 23.4375V17.8125M2.81252 17.8125V8.26874C2.81054 7.92645 2.9356 7.5956 3.16351 7.34021C3.39142 7.08482 3.70597 6.92306 4.04627 6.88624C8.21258 6.45377 12.4125 6.45377 16.5788 6.88624C17.285 6.95874 17.8125 7.55874 17.8125 8.26874V9.46624M2.81252 17.8125H17.8125M24.375 23.4375C24.375 23.9348 24.1775 24.4117 23.8258 24.7633C23.4742 25.1149 22.9973 25.3125 22.5 25.3125C22.0027 25.3125 21.5258 25.1149 21.1742 24.7633C20.8226 24.4117 20.625 23.9348 20.625 23.4375M24.375 23.4375C24.375 22.9402 24.1775 22.4633 23.8258 22.1117C23.4742 21.76 22.9973 21.5625 22.5 21.5625C22.0027 21.5625 21.5258 21.76 21.1742 22.1117C20.8226 22.4633 20.625 22.9402 20.625 23.4375M24.375 23.4375H25.7813C26.5575 23.4375 27.1925 22.8075 27.1438 22.0325C26.8926 17.9045 25.5024 13.9269 23.1275 10.5412C22.9013 10.2241 22.606 9.96251 22.2638 9.77628C21.9217 9.59004 21.5417 9.48402 21.1525 9.46624H17.8125M17.8125 9.46624V17.8125" stroke="#FFB100" stroke-width="1.5" stroke-linecap="round" stroke-linejoin="round"/>
</svg>
