<svg width="30" height="30" viewBox="0 0 30 30" fill="none" xmlns="http://www.w3.org/2000/svg">
<path d="M19.6875 13.125V7.5C19.6875 6.2568 19.1937 5.06451 18.3146 4.18544C17.4355 3.30636 16.2432 2.8125 15 2.8125C13.7568 2.8125 12.5646 3.30636 11.6855 4.18544C10.8064 5.06451 10.3125 6.2568 10.3125 7.5V13.125M24.5075 10.6337L26.0863 25.6337C26.1738 26.465 25.5238 27.1875 24.6875 27.1875H5.31254C5.1153 27.1877 4.92022 27.1464 4.73998 27.0663C4.55973 26.9862 4.39835 26.8691 4.26632 26.7226C4.13429 26.5761 4.03456 26.4034 3.97361 26.2158C3.91266 26.0282 3.89185 25.8299 3.91254 25.6337L5.49254 10.6337C5.52899 10.2882 5.69207 9.96838 5.95036 9.73595C6.20864 9.50352 6.54383 9.37494 6.89129 9.375H23.1088C23.8288 9.375 24.4325 9.91875 24.5075 10.6337ZM10.7813 13.125C10.7813 13.2493 10.7319 13.3685 10.644 13.4565C10.5561 13.5444 10.4369 13.5938 10.3125 13.5938C10.1882 13.5938 10.069 13.5444 9.98109 13.4565C9.89318 13.3685 9.84379 13.2493 9.84379 13.125C9.84379 13.0007 9.89318 12.8815 9.98109 12.7935C10.069 12.7056 10.1882 12.6562 10.3125 12.6562C10.4369 12.6562 10.5561 12.7056 10.644 12.7935C10.7319 12.8815 10.7813 13.0007 10.7813 13.125ZM20.1563 13.125C20.1563 13.2493 20.1069 13.3685 20.019 13.4565C19.9311 13.5444 19.8119 13.5938 19.6875 13.5938C19.5632 13.5938 19.444 13.5444 19.3561 13.4565C19.2682 13.3685 19.2188 13.2493 19.2188 13.125C19.2188 13.0007 19.2682 12.8815 19.3561 12.7935C19.444 12.7056 19.5632 12.6562 19.6875 12.6562C19.8119 12.6562 19.9311 12.7056 20.019 12.7935C20.1069 12.8815 20.1563 13.0007 20.1563 13.125Z" stroke="#FFB100" stroke-width="1.5" stroke-linecap="round" stroke-linejoin="round"/>
</svg>
