<svg width="90" height="90" viewBox="0 0 90 90" fill="none" xmlns="http://www.w3.org/2000/svg">
<rect width="90" height="90" rx="16" fill="#0063AD"/>
<path d="M24.204 37.1704V30.1666H5.92383V37.1704H10.1177V52.152H5.92383V59.1559H24.204V52.152H20.0101V37.1704H24.204Z" fill="white"/>
<path d="M44.3772 41.29C43.2474 40.9613 37.4337 39.2973 36.4271 38.9686C35.4205 38.6399 34.5988 38.1674 34.5988 37.5717C34.5988 36.9759 35.5232 36.3391 37.3926 36.3391C43.2885 36.3391 46.1208 39.9752 46.1208 39.9752C46.1208 39.9752 46.4399 40.4004 46.5469 40.5529H52.2352V30.6326H46.1287V32.4374C45.6622 32.1153 42.2189 29.868 36.879 29.868C29.8328 29.868 25.9091 33.5247 25.9091 38.9891C25.9091 44.4536 30.8599 46.7133 32.2363 47.2885C33.6127 47.8637 38.995 49.3839 41.2958 50.1029C43.5966 50.8219 44.4389 51.3355 44.4389 51.7053C44.4389 52.075 43.4323 53.0406 40.5562 53.0406C35.5465 53.0406 32.9667 50.0863 32.5139 49.5142V49.5098C32.3699 49.3169 32.201 49.0886 32.1436 49.0026C32.0772 48.9032 31.9232 48.6825 31.8164 48.53H26.1281V59.1238H32.5139V56.9115C33.2569 57.406 37.0603 59.7787 41.6245 59.7787C46.7191 59.7787 53.2107 57.56 53.2107 50.637C53.2107 43.714 45.5071 41.6186 44.3772 41.29Z" fill="white"/>
<path d="M69.4249 29.7705C60.9319 29.7705 53.9664 34.0168 53.9664 44.8565C53.9664 55.6961 61.528 59.7563 69.4621 59.7563C77.3961 59.7563 84.8833 55.7333 84.8833 44.9684C84.8833 34.2035 77.3964 29.7705 69.4249 29.7705ZM69.4995 52.5299C66.5939 52.5299 64.7314 51.8593 64.7314 44.8193C64.7314 37.7792 66.1098 37.0342 69.6111 37.0342C71.7343 37.0342 74.3046 37.1831 74.3046 44.5958C74.3046 52.0086 72.4051 52.5299 69.4995 52.5299Z" fill="white"/>
<path d="M18.1044 26.9696C20.0136 24.1505 22.3614 21.6514 25.0528 19.5761C26.1411 20.3807 27.2979 21.1106 28.5141 21.7611C26.4766 24.0323 24.651 26.5486 24.3486 26.9696H25.5712C26.305 25.9806 27.8229 23.991 29.4234 22.2271C31.1729 23.0872 33.0321 23.7905 34.972 24.3263C34.4556 25.4218 34.0653 26.3798 33.8362 26.9696H34.8984C35.1424 26.3622 35.5 25.515 35.9462 24.5789C38.4209 25.1835 41.0139 25.5224 43.6666 25.574V26.9698H44.6527V25.5788C47.286 25.5595 49.8647 25.2595 52.3307 24.6956C52.7511 25.5849 53.0895 26.3877 53.3233 26.9696H54.3855C54.1653 26.4031 53.7968 25.4976 53.3102 24.4558C55.2848 23.9421 57.1795 23.2571 58.9639 22.4105C60.5032 24.1276 61.9422 26.0149 62.6507 26.9696H63.8731C63.58 26.5616 61.849 24.1748 59.882 21.9563C61.2344 21.2573 62.5166 20.4621 63.7151 19.5761C66.4066 21.6514 68.7546 24.1505 70.6636 26.9696H71.8497C66.0174 17.9683 55.885 12 44.3838 12C32.8827 12 22.7502 17.9683 16.918 26.9696H18.1044ZM35.4119 23.4245C33.5667 22.9261 31.7962 22.2727 30.1271 21.4733C30.3539 21.2376 30.5806 21.0093 30.8046 20.7932C33.0901 18.5892 36.8493 16.1691 37.6733 15.6481C38.342 16.0154 39.0717 16.326 39.8479 16.5725C39.2451 17.363 38.0615 18.9677 36.7726 21.0031C36.2708 21.7952 35.8138 22.6278 35.4119 23.4245ZM43.6666 24.5876C41.1693 24.5377 38.7274 24.2267 36.3934 23.6732C36.7584 22.9596 37.1657 22.2253 37.6056 21.5308C39.0906 19.1861 40.4304 17.4257 40.8767 16.8529C41.7673 17.0621 42.7032 17.1944 43.6666 17.2376V24.5876ZM44.6527 24.5925V17.2488C45.6031 17.2327 46.533 17.1321 47.4229 16.9532C47.933 17.613 49.2096 19.3097 50.6163 21.5308C51.079 22.2616 51.5058 23.0364 51.8853 23.785C49.5595 24.2994 47.1318 24.5741 44.6527 24.5925ZM52.8738 23.5514C52.4569 22.7166 51.9775 21.8373 51.4491 21.0031C50.2268 19.0727 49.0987 17.5295 48.4714 16.7009C49.2969 16.469 50.0762 16.1676 50.7918 15.8029C51.9486 16.5444 55.3084 18.7598 57.4171 20.7932C57.697 21.0633 57.9807 21.3517 58.264 21.6508C56.5601 22.4375 54.7539 23.0743 52.8738 23.5514ZM62.8895 18.9596C61.7327 19.7947 60.4966 20.5428 59.1952 21.2005C58.8315 20.8103 58.4647 20.4335 58.1016 20.0834C56.1293 18.1815 53.1927 16.1862 51.7538 15.2492C52.2426 14.9324 52.6896 14.582 53.0881 14.2006C56.6497 15.2182 59.9561 16.8454 62.8895 18.9596ZM44.3842 12.9861C46.988 12.9861 49.5188 13.3037 51.942 13.8983C50.103 15.3921 47.3474 16.2683 44.3842 16.2683C41.4074 16.2683 38.6594 15.3949 36.8228 13.8992C39.2469 13.3041 41.7788 12.9861 44.3842 12.9861ZM35.6797 14.2006C36.0041 14.5115 36.3592 14.8024 36.744 15.0706C35.4404 15.9094 32.2296 18.0493 30.1202 20.0833C29.8165 20.3761 29.5103 20.6881 29.2053 21.0105C28.0386 20.3996 26.926 19.7155 25.879 18.9596C28.8119 16.8454 32.1182 15.2184 35.6797 14.2006Z" fill="white"/>
<path d="M70.6653 62.4405C68.7967 65.2003 66.5073 67.653 63.8872 69.702C62.6393 68.7636 61.2999 67.9248 59.8835 67.1922C61.5898 65.2674 63.1187 63.216 63.6847 62.4406H62.4568C61.6998 63.4514 60.3747 65.166 58.9653 66.7382C57.1808 65.8914 55.2863 65.2059 53.3113 64.6923C53.7289 63.7981 54.0588 63.0056 54.2833 62.4406H53.218C52.9922 62.9915 52.6919 63.6905 52.3312 64.4535C49.8667 63.8905 47.2883 63.5906 44.6529 63.5715V62.4406H43.6668V63.5759C41.012 63.6274 38.4191 63.9659 35.9459 64.5697C35.5607 63.7616 35.2414 63.0193 35.0042 62.4406H33.9388C34.1739 63.0329 34.525 63.875 34.9713 64.822C33.0309 65.3579 31.171 66.0603 29.4218 66.9208C27.9519 65.3006 26.5522 63.4906 25.7654 62.4405H24.5375C25.1222 63.2416 26.7372 65.408 28.5141 67.3884C27.2343 68.0737 26.0192 68.846 24.8811 69.7019C22.2608 67.6528 19.9715 65.2001 18.1031 62.4403H16.9188C22.7512 71.4416 32.8834 77.4099 44.3843 77.4099C55.8851 77.4099 66.0174 71.4418 71.8499 62.4403L70.6653 62.4405ZM52.8743 65.5972C54.7551 66.0741 56.5612 66.7108 58.2653 67.4978C57.9815 67.7973 57.6977 68.0862 57.4173 68.3567C55.3152 70.3836 51.966 72.5938 50.8005 73.3413C50.0849 72.9751 49.3046 72.6737 48.4765 72.4418C49.1049 71.6117 50.23 70.0715 51.4492 68.1465C51.9778 67.3121 52.4572 66.4324 52.8743 65.5972ZM44.6527 64.5574C47.1338 64.5758 49.5615 64.8498 51.8858 65.3635C51.5062 66.1126 51.0794 66.8875 50.6161 67.619C49.2114 69.8369 47.9368 71.5318 47.4252 72.1936C46.5377 72.0168 45.6079 71.917 44.6525 71.9013V64.5574H44.6527ZM43.6666 64.5623V71.9115C42.6996 71.9544 41.7627 72.085 40.8733 72.2927C40.4238 71.7157 39.0883 69.9602 37.6056 67.619C37.1653 66.9239 36.7578 66.1892 36.3926 65.4749C38.7253 64.9221 41.1671 64.6121 43.6666 64.5623ZM35.4115 65.7244C35.8134 66.5216 36.2708 67.3542 36.7726 68.1467C38.0605 70.1804 39.2433 71.7841 39.8466 72.5752C39.0693 72.8216 38.3404 73.1325 37.672 73.5008C36.8449 72.9776 33.0889 70.5592 30.8047 68.3567C30.5804 68.1404 30.3538 67.9118 30.1266 67.676C31.7954 66.8763 33.5657 66.2227 35.4115 65.7244ZM25.7004 70.3201C26.7993 69.5122 27.9711 68.7838 29.2038 68.1381C29.5092 68.4609 29.816 68.7733 30.1201 69.0665C32.2289 71.0999 35.4387 73.2394 36.7428 74.0785C36.2782 74.4037 35.8547 74.7614 35.4783 75.1495C31.9216 74.1073 28.6224 72.4572 25.7004 70.3201ZM44.3842 76.424C41.695 76.424 39.0832 76.0863 36.5882 75.4534C38.4101 73.8524 41.3032 72.8816 44.3842 72.8816C47.4613 72.8816 50.3572 73.853 52.1793 75.4536C49.6844 76.0865 47.073 76.424 44.3842 76.424ZM53.2893 75.1495C52.842 74.6885 52.3307 74.2682 51.7603 73.8962C53.2016 72.9577 56.1323 70.9655 58.1016 69.0663C58.4648 68.7161 58.8317 68.3391 59.1957 67.9486C60.5635 68.6405 61.8599 69.432 63.0678 70.32C60.1456 72.4574 56.8462 74.1074 53.2893 75.1495Z" fill="white"/>
</svg>
