<svg width="30" height="30" viewBox="0 0 30 30" fill="none" xmlns="http://www.w3.org/2000/svg">
<g clip-path="url(#clip0_411_1015)">
<path d="M25.3256 12.9572C25.8333 12.5213 26.1625 11.9134 26.25 11.25C26.1625 10.5866 25.8333 9.97872 25.3256 9.54281C25.0567 9.292 24.8409 8.98978 24.6909 8.65406C24.648 8.27224 24.6831 7.88567 24.7941 7.51781C25.0089 6.90194 24.9913 6.22875 24.7444 5.625C24.3405 5.10358 23.7594 4.74835 23.1112 4.62656C22.7435 4.54054 22.3968 4.3811 22.0922 4.15781C21.8689 3.85316 21.7095 3.50654 21.6234 3.13875C21.5021 2.49036 21.1468 1.90915 20.625 1.50563C20.021 1.25836 19.3475 1.24036 18.7312 1.455C18.3632 1.56659 17.9762 1.60168 17.5941 1.55812C17.2583 1.40814 16.9561 1.19231 16.7053 0.923438C16.2697 0.416464 15.6626 0.0877212 15 0C14.3366 0.0875256 13.7287 0.416651 13.2928 0.924375C13.042 1.19325 12.7398 1.40907 12.4041 1.55906C12.0223 1.60343 11.6354 1.56832 11.2678 1.45594C10.6521 1.24019 9.97857 1.25787 9.375 1.50563C8.85269 1.90942 8.49675 2.49087 8.37469 3.13969C8.28867 3.50748 8.12923 3.8541 7.90594 4.15875C7.60129 4.38204 7.25467 4.54148 6.88688 4.6275C6.2393 4.74898 5.65885 5.10393 5.25563 5.625C5.00836 6.22895 4.99036 6.90245 5.205 7.51875C5.31597 7.88693 5.35105 8.2738 5.30813 8.65594C5.15814 8.99166 4.94231 9.29387 4.67344 9.54469C4.16646 9.98028 3.83772 10.5874 3.75 11.25C3.83753 11.9134 4.16665 12.5213 4.67438 12.9572C4.94325 13.208 5.15907 13.5102 5.30906 13.8459C5.35202 14.2278 5.31693 14.6143 5.20594 14.9822C4.99106 15.5981 5.00873 16.2712 5.25563 16.875C5.65951 17.3964 6.24055 17.7516 6.88875 17.8734C7.25654 17.9595 7.60316 18.1189 7.90781 18.3422C8.1311 18.6468 8.29054 18.9935 8.37656 19.3612C8.49786 20.0096 8.85319 20.5908 9.375 20.9944V28.6275C9.37505 28.8869 9.44682 29.1411 9.58238 29.3622C9.71794 29.5833 9.912 29.7627 10.1431 29.8804C10.3742 29.998 10.6334 30.0495 10.8919 30.0291C11.1505 30.0087 11.3983 29.9172 11.6081 29.7647L14.7244 27.4988C14.8045 27.4405 14.901 27.4092 15 27.4092C15.099 27.4092 15.1955 27.4405 15.2756 27.4988L18.3919 29.7647C18.6017 29.9172 18.8495 30.0087 19.1081 30.0291C19.3666 30.0495 19.6258 29.998 19.8569 29.8804C20.088 29.7627 20.2821 29.5833 20.4176 29.3622C20.5532 29.1411 20.625 28.8869 20.625 28.6275V20.9944C21.1464 20.5905 21.5016 20.0094 21.6234 19.3612C21.7095 18.9935 21.8689 18.6468 22.0922 18.3422C22.3968 18.1189 22.7435 17.9595 23.1112 17.8734C23.7596 17.7521 24.3408 17.3968 24.7444 16.875C24.9916 16.271 25.0096 15.5975 24.795 14.9812C24.684 14.6131 24.6489 14.2262 24.6919 13.8441C24.8418 13.5091 25.0573 13.2075 25.3256 12.9572ZM19.6875 28.6275C19.6867 28.7136 19.6623 28.7978 19.6168 28.871C19.5713 28.9441 19.5066 29.0032 19.4297 29.042C19.3528 29.0807 19.2667 29.0975 19.1808 29.0906C19.095 29.0836 19.0128 29.0531 18.9431 29.0025L15.8269 26.7366C15.5866 26.5619 15.2971 26.4678 15 26.4678C14.7029 26.4678 14.4134 26.5619 14.1731 26.7366L11.0569 29.0063C10.9872 29.0569 10.905 29.0874 10.8192 29.0943C10.7333 29.1013 10.6472 29.0845 10.5703 29.0457C10.4934 29.007 10.4287 28.9478 10.3832 28.8747C10.3377 28.8016 10.3133 28.7174 10.3125 28.6313V21.1875C10.6341 21.1649 10.9534 21.1157 11.2669 21.0403C11.6351 20.9297 12.0219 20.8947 12.4041 20.9372C12.7398 21.0872 13.042 21.303 13.2928 21.5719C13.7281 22.081 14.336 22.4115 15 22.5C15.6634 22.4125 16.2713 22.0833 16.7072 21.5756C16.958 21.3067 17.2602 21.0909 17.5959 20.9409C17.9778 20.8984 18.3643 20.9335 18.7322 21.0441C19.0462 21.1177 19.3657 21.1657 19.6875 21.1875V28.6275ZM24.6291 12.3291C24.2528 12.6829 23.9639 13.1194 23.7853 13.6041C23.694 14.1286 23.7261 14.6672 23.8791 15.1772C24.0196 15.5725 24.0392 16.0007 23.9353 16.4072C23.7806 16.6753 23.2941 16.8319 22.8244 16.9828C22.3123 17.1033 21.8353 17.3415 21.4313 17.6784C21.0941 18.0824 20.8559 18.5594 20.7356 19.0716C20.5837 19.5403 20.4272 20.0278 20.16 20.1825C19.7536 20.2876 19.3251 20.268 18.93 20.1263C18.4202 19.9742 17.8821 19.9421 17.3578 20.0325C16.8731 20.2111 16.4366 20.4999 16.0828 20.8762C15.7078 21.2119 15.3272 21.5597 15.0037 21.5597C14.6803 21.5597 14.2959 21.2128 13.9247 20.8762C13.5709 20.4999 13.1344 20.2111 12.6497 20.0325C12.4874 19.991 12.3203 19.9708 12.1528 19.9725C11.7901 19.9862 11.4297 20.0374 11.0775 20.1253C10.6824 20.2668 10.2539 20.2864 9.8475 20.1816C9.57937 20.0269 9.42281 19.5403 9.27188 19.0706C9.15137 18.5585 8.9132 18.0815 8.57625 17.6775C8.17233 17.3404 7.6953 17.1022 7.18313 16.9819C6.71438 16.83 6.22688 16.6734 6.07219 16.4062C5.96756 15.9998 5.98715 15.5714 6.12844 15.1762C6.28137 14.6666 6.31347 14.1283 6.22219 13.6041C6.0436 13.1194 5.75474 12.6829 5.37844 12.3291C5.03437 11.9578 4.6875 11.5744 4.6875 11.25C4.6875 10.9256 5.03438 10.5422 5.37094 10.1709C5.74724 9.81711 6.0361 9.38061 6.21469 8.89594C6.30598 8.3714 6.27388 7.8328 6.12094 7.32281C5.98151 6.92751 5.96291 6.49966 6.0675 6.09375C6.22219 5.82562 6.70875 5.66906 7.17844 5.51813C7.69054 5.39762 8.16753 5.15945 8.57156 4.8225C8.90868 4.41858 9.14688 3.94155 9.26719 3.42937C9.41906 2.96062 9.57562 2.47312 9.84281 2.31844C10.2495 2.21362 10.6783 2.23321 11.0738 2.37469C11.5834 2.52762 12.1217 2.55972 12.6459 2.46844C13.1306 2.28985 13.5671 2.00099 13.9209 1.62469C14.2922 1.28438 14.6756 0.9375 15 0.9375C15.3244 0.9375 15.7078 1.28437 16.0791 1.62094C16.4329 1.99724 16.8694 2.2861 17.3541 2.46469C17.8787 2.55455 18.4169 2.52247 18.9272 2.37094C19.3226 2.2309 19.7507 2.21132 20.1572 2.31469C20.4253 2.46938 20.5819 2.95594 20.7328 3.42563C20.8533 3.93773 21.0915 4.41472 21.4284 4.81875C21.8324 5.15587 22.3094 5.39406 22.8216 5.51437C23.2903 5.66625 23.7778 5.82281 23.9325 6.09C24.0373 6.4967 24.0177 6.92549 23.8763 7.32094C23.7233 7.83061 23.6912 8.36889 23.7825 8.89313C23.9611 9.3778 24.2499 9.81429 24.6262 10.1681C24.9619 10.5431 25.3097 10.9237 25.3097 11.2472C25.3097 11.5706 24.9656 11.9578 24.6291 12.3291ZM15 3.75C13.5166 3.75 12.0666 4.18987 10.8332 5.01398C9.59985 5.83809 8.63856 7.00943 8.0709 8.37987C7.50325 9.75032 7.35472 11.2583 7.64411 12.7132C7.9335 14.168 8.6478 15.5044 9.6967 16.5533C10.7456 17.6022 12.082 18.3165 13.5368 18.6059C14.9917 18.8953 16.4997 18.7468 17.8701 18.1791C19.2406 17.6114 20.4119 16.6501 21.236 15.4168C22.0601 14.1834 22.5 12.7334 22.5 11.25C22.4978 9.26156 21.7069 7.3552 20.3008 5.94917C18.8948 4.54313 16.9884 3.75223 15 3.75ZM15 17.8125C13.7021 17.8125 12.4333 17.4276 11.3541 16.7065C10.2749 15.9854 9.43374 14.9605 8.93704 13.7614C8.44034 12.5622 8.31038 11.2427 8.5636 9.96972C8.81681 8.69672 9.44183 7.52739 10.3596 6.60961C11.2774 5.69183 12.4467 5.06681 13.7197 4.8136C14.9927 4.56038 16.3122 4.69034 17.5114 5.18704C18.7105 5.68374 19.7354 6.52487 20.4565 7.60407C21.1776 8.68327 21.5625 9.95206 21.5625 11.25C21.5605 12.9899 20.8685 14.6579 19.6382 15.8882C18.4079 17.1185 16.7399 17.8105 15 17.8125ZM17.1 8.84906C16.9152 8.84852 16.7322 8.88461 16.5615 8.95525C16.3907 9.0259 16.2357 9.12969 16.1053 9.26062L13.7812 11.5819L13.4541 11.25C13.1888 10.9938 12.8336 10.8521 12.4649 10.8553C12.0962 10.8585 11.7435 11.0064 11.4828 11.2671C11.222 11.5279 11.0741 11.8806 11.0709 12.2493C11.0677 12.618 11.2095 12.9732 11.4656 13.2384L12.7913 14.5641C13.055 14.8277 13.4126 14.9758 13.7855 14.9758C14.1584 14.9758 14.516 14.8277 14.7797 14.5641L18.0937 11.25C18.3574 10.9863 18.5055 10.6287 18.5055 10.2558C18.5055 9.88289 18.3574 9.52527 18.0937 9.26156C17.9638 9.13031 17.8089 9.02625 17.6383 8.95543C17.4677 8.88461 17.2847 8.84845 17.1 8.84906ZM17.4309 10.5872L14.1169 13.9012C14.029 13.9891 13.9098 14.0385 13.7855 14.0385C13.6612 14.0385 13.542 13.9891 13.4541 13.9012L12.1284 12.5756C12.0837 12.5324 12.048 12.4807 12.0234 12.4235C11.9988 12.3663 11.9859 12.3048 11.9854 12.2425C11.9848 12.1803 11.9967 12.1186 12.0202 12.061C12.0438 12.0034 12.0786 11.951 12.1226 11.907C12.1666 11.863 12.219 11.8282 12.2766 11.8046C12.3342 11.781 12.3959 11.7692 12.4582 11.7697C12.5204 11.7703 12.5819 11.7832 12.6391 11.8078C12.6963 11.8323 12.748 11.868 12.7913 11.9128L13.4541 12.5756C13.542 12.6635 13.6612 12.7129 13.7855 12.7129C13.9098 12.7129 14.029 12.6635 14.1169 12.5756L16.7681 9.92438C16.8117 9.88087 16.8635 9.84639 16.9204 9.82291C16.9774 9.79942 17.0384 9.78739 17.1 9.7875C17.1928 9.78752 17.2834 9.81505 17.3605 9.86662C17.4376 9.91819 17.4977 9.99147 17.5331 10.0772C17.5685 10.1629 17.5777 10.2572 17.5596 10.3482C17.5414 10.4391 17.4966 10.5217 17.4309 10.5872Z" fill="#FFB100" stroke="#FFB100" stroke-width="0.3"/>
</g>
<defs>
<clipPath id="clip0_411_1015">
<rect width="30" height="30" fill="white"/>
</clipPath>
</defs>
</svg>
