<svg width="11" height="13" viewBox="0 0 11 13" fill="none" xmlns="http://www.w3.org/2000/svg">
<path d="M8.625 4.625V3.375C8.625 1.625 7.25 0.25 5.5 0.25C3.75 0.25 2.375 1.625 2.375 3.375V4.625C1.3125 4.625 0.5 5.4375 0.5 6.5V10.875C0.5 11.9375 1.3125 12.75 2.375 12.75H8.625C9.6875 12.75 10.5 11.9375 10.5 10.875V6.5C10.5 5.4375 9.6875 4.625 8.625 4.625ZM3.625 3.375C3.625 2.3125 4.4375 1.5 5.5 1.5C6.5625 1.5 7.375 2.3125 7.375 3.375V4.625H3.625V3.375ZM6.125 9.625C6.125 10 5.875 10.25 5.5 10.25C5.125 10.25 4.875 10 4.875 9.625V7.75C4.875 7.375 5.125 7.125 5.5 7.125C5.875 7.125 6.125 7.375 6.125 7.75V9.625Z" fill="#029E46"/>
</svg>
