<svg width="30" height="30" viewBox="0 0 30 30" fill="none" xmlns="http://www.w3.org/2000/svg">
<path d="M24.2422 28H5.75781C3.6857 28 2 26.3139 2 24.2422V5.75781C2 3.6861 3.6857 2 5.75781 2H24.2422C26.3143 2 28 3.6861 28 5.75781V24.2422C28 26.3139 26.3143 28 24.2422 28ZM5.75781 3.21875C4.35776 3.21875 3.21875 4.35815 3.21875 5.75781V24.2422C3.21875 25.6418 4.35776 26.7812 5.75781 26.7812H24.2422C25.6422 26.7812 26.7812 25.6418 26.7812 24.2422V5.75781C26.7812 4.35815 25.6422 3.21875 24.2422 3.21875H5.75781Z" fill="#FFB100" stroke="#FFB100" stroke-width="0.5"/>
<path d="M13.0977 21.9217H5.63099C5.28263 21.9217 5 21.6492 5 21.3134C5 20.9775 5.28263 20.7051 5.63099 20.7051H13.0977C13.4461 20.7051 13.7287 20.9775 13.7287 21.3134C13.7287 21.6492 13.4461 21.9217 13.0977 21.9217ZM10.9418 24H5.63099C5.28263 24 5 23.7275 5 23.3917C5 23.0559 5.28263 22.7834 5.63099 22.7834H10.9418C11.2902 22.7834 11.5728 23.0559 11.5728 23.3917C11.5728 23.7275 11.2902 24 10.9418 24ZM23.369 15.5853C23.2113 15.5853 23.056 15.5282 22.9368 15.4197L21.6231 14.2285L20.5357 15.3857C20.4137 15.5148 20.2555 15.594 20.0571 15.5853C19.8751 15.5821 19.7034 15.5037 19.5859 15.369L18.6538 14.3045L17.7217 15.369C17.6042 15.5037 17.4325 15.5821 17.2505 15.5853C17.0874 15.5932 16.8944 15.5148 16.7719 15.3857L15.685 14.2293L14.3712 15.4197C14.188 15.5868 13.9189 15.6304 13.6889 15.5354C13.4576 15.4387 13.3081 15.2193 13.3081 14.977V2.60829C13.3081 2.27247 13.5907 2 13.939 2H23.369C23.7174 2 24 2.27247 24 2.60829V14.977C24 15.2193 23.8505 15.4387 23.6192 15.5354C23.5387 15.5686 23.4536 15.5853 23.369 15.5853ZM18.6538 12.7529C18.8399 12.7529 19.0161 12.8321 19.1361 12.9691L20.0851 14.0534L21.1195 12.9525C21.2332 12.8321 21.3926 12.76 21.5619 12.7537C21.7295 12.7386 21.8963 12.8059 22.0191 12.9184L22.738 13.5695V3.21659H14.57V13.5695L15.2889 12.9184C15.4122 12.8059 15.5798 12.7362 15.7462 12.7537C15.9154 12.76 16.0752 12.8321 16.1886 12.9525L17.2226 14.0526L18.1715 12.9691C18.2915 12.8321 18.4677 12.7529 18.6538 12.7529Z" fill="#FFB100" stroke="#FFB100" stroke-width="0.2"/>
</svg>
